<svg width="16" height="16" viewBox="0 0 16 16" fill="none" xmlns="http://www.w3.org/2000/svg">
<rect width="16" height="16" rx="1" fill="#15466F"/>
<rect x="4.49292" y="11.2031" width="1.48687" height="1.23791" rx="0.618955" fill="#ECEDEE"/>
<rect x="5.97974" y="12.441" width="1.09899" height="0.959381" rx="0.479691" fill="#ECEDEE"/>
<path d="M8.75489 3.58997C9.308 3.58997 9.75883 3.60084 10.1074 3.62259C10.4635 3.63709 10.74 3.68422 10.937 3.76398C11.134 3.84374 11.2742 3.97787 11.3575 4.16639C11.4409 4.35491 11.4901 4.61593 11.5053 4.94946C11.528 5.28299 11.5394 5.71802 11.5394 6.25457V7.28778H9.89142C9.89142 7.28778 8.16877 5.8185 8.14604 5.80399C8.12328 5.77137 7.9025 5.75561 7.9025 5.91394V8.70165C7.9025 8.81041 7.91008 8.87567 7.92523 8.89742C7.94796 8.91192 7.99177 8.98909 8.1298 8.91917C8.26784 8.84926 8.6818 8.28992 8.6818 8.28992L9.12829 9.1833L9.73715 8.79488L9.33124 7.97918H10.4272C10.4272 7.97918 10.4859 7.98324 10.5084 7.94034C10.5308 7.89743 10.5084 7.86265 10.5084 7.86265L10.0619 7.5053H11.5394V8.53852C11.5394 9.06781 11.528 9.50285 11.5053 9.84363C11.4901 10.1772 11.4409 10.4382 11.3575 10.6267C11.2742 10.8152 11.134 10.9493 10.937 11.0291C10.74 11.1089 10.4673 11.1596 10.1187 11.1814C9.77019 11.1959 9.31558 11.2031 8.75489 11.2031H7.27741C6.7243 11.2031 6.26969 11.1959 5.91358 11.1814C5.56504 11.1596 5.29228 11.1089 5.09528 11.0291C4.89828 10.9493 4.75811 10.8152 4.67476 10.6267C4.59142 10.4382 4.53838 10.1772 4.51565 9.84363C4.5005 9.50285 4.49292 9.06781 4.49292 8.53852V6.25457C4.49292 5.71802 4.5005 5.28299 4.51565 4.94946C4.53838 4.61593 4.59142 4.35491 4.67476 4.16639C4.75811 3.97787 4.89828 3.84374 5.09528 3.76398C5.29228 3.68422 5.56504 3.63709 5.91358 3.62259C6.26969 3.60084 6.7243 3.58997 7.27741 3.58997H8.75489Z" fill="#ECEDEE"/>
</svg>
