<svg width="1015" height="117" viewBox="0 0 1015 117" fill="none" xmlns="http://www.w3.org/2000/svg">
<path d="M147.019 115.914C138.961 115.914 132.337 115.803 127.149 115.582C122.07 115.251 118.096 114.478 115.226 113.264C112.356 112.05 110.313 110.008 109.099 107.137C107.885 104.267 107.112 100.293 106.781 95.2148C106.56 90.0263 106.45 83.4027 106.45 75.3439V0.000282288H156.127V33.1184H172.686V115.914H147.019Z" fill="#F5F7F8"/>
<path d="M175.985 115.914V0.000282288H225.662V115.914H175.985Z" fill="#F5F7F8"/>
<path d="M334.945 115.914V0.000282288H384.622V63.8709C386.278 63.8709 387.216 63.7605 387.437 63.5397C387.768 63.2085 387.934 62.215 387.934 60.5591V27.2044C387.934 27.2044 436.979 8.8712 437.611 27.2044C438.141 42.5715 437.611 72.7418 437.611 72.7418H404.493C404.493 74.3977 404.603 75.3912 404.824 75.7224C405.155 75.9432 406.149 76.0536 407.805 76.0536H437.611V115.914H387.934V94.8599C386.278 94.8599 385.285 95.0255 384.953 95.3567C384.733 95.5775 384.622 96.5158 384.622 98.1717V115.914H334.945Z" fill="#F5F7F8"/>
<path d="M81.8017 0.497057C76.7236 0.165874 70.1551 0.000282288 62.0964 0.000282288H40.5697C32.5109 0.000282288 25.8873 0.165874 20.6988 0.497057C15.6207 0.717841 11.6465 1.4354 8.77629 2.64973C5.90606 3.86406 3.86378 5.90634 2.64945 8.77658C1.43512 11.6468 0.662362 15.621 0.331181 20.6991C0.110394 25.7772 0 32.4008 0 40.5699V75.3439C0 83.4027 0.110394 90.0263 0.331181 95.2148C0.662362 100.293 1.43512 104.267 2.64945 107.137C3.86378 110.008 5.90606 112.05 8.77629 113.264C11.6465 114.478 15.6207 115.251 20.6988 115.582C25.8873 115.803 32.5109 115.914 40.5697 115.914H62.0964C70.2655 115.914 76.8892 115.803 81.9673 115.582C87.0454 115.251 91.0195 114.478 93.8898 113.264C96.76 112.05 98.8023 110.008 100.017 107.137C101.231 104.267 101.949 100.293 102.169 95.2148C102.5 90.0263 102.666 83.4027 102.666 75.3439V59.6128L85.5165 59.7311C85.5165 59.7311 86.2792 60.4137 86.6993 60.9139C87.2349 61.5515 87.5364 61.9305 87.8821 62.6881C88.2774 63.5544 88.3976 64.1044 88.4735 65.0537C88.5856 66.454 88.4463 67.3155 87.8821 68.602C87.2882 69.9564 86.6792 70.6451 85.5165 71.559C83.794 72.913 80.7854 73.3332 80.7854 73.3332H73.6887L76.0542 78.0643L79.6026 85.1611C79.6026 85.1611 80.194 86.3439 80.194 86.9353C80.194 87.5266 79.6026 87.5266 79.6026 87.5266L68.3661 93.4406L64.8177 86.3439L61.2694 79.2471L57.1296 82.7955C57.1296 82.7955 54.3652 84.4093 52.3985 84.5697C50.2762 84.7427 48.8667 84.5389 47.0759 83.3869C45.9772 82.68 45.4118 82.1235 44.7103 81.0213C43.9261 79.789 43.5275 77.4729 43.5275 77.4729V41.9893C42.9362 31.3442 54.1726 31.3442 57.721 34.8925C61.2694 38.4409 81.6827 56.301 81.6827 56.301H102.666V40.5699C102.666 32.4008 102.5 25.7772 102.169 20.6991C101.949 15.621 101.231 11.6468 100.017 8.77658C98.8023 5.90634 96.76 3.86406 93.8898 2.64973C91.0195 1.4354 86.9902 0.717841 81.8017 0.497057Z" fill="#F5F7F8"/>
<path d="M310.671 0.497057C305.593 0.165874 299.025 0.000282288 290.966 0.000282288H269.439C261.381 0.000282288 254.757 0.165874 249.568 0.497057C244.49 0.717841 240.516 1.4354 237.646 2.64973C234.776 3.86406 232.733 5.90634 231.519 8.77658C230.305 11.6468 229.532 15.621 229.201 20.6991C228.98 25.7772 228.87 32.4008 228.87 40.5699V75.3439C228.87 83.4027 228.98 90.0263 229.201 95.2148C229.532 100.293 230.305 104.267 231.519 107.137C232.733 110.008 234.776 112.05 237.646 113.264C240.516 114.478 244.49 115.251 249.568 115.582C254.757 115.803 261.381 115.914 269.439 115.914H290.966C299.135 115.914 305.759 115.803 310.837 115.582C315.915 115.251 319.889 114.478 322.759 113.264C325.63 112.05 327.672 110.008 328.886 107.137C330.101 104.267 330.818 100.293 331.039 95.2148C331.37 90.0263 331.536 83.4027 331.536 75.3439V59.6128L314.386 59.7311C314.386 59.7311 315.149 60.4137 315.569 60.9139C316.105 61.5515 316.406 61.9305 316.752 62.6881C317.147 63.5544 317.267 64.1044 317.343 65.0537C317.455 66.454 317.316 67.3155 316.752 68.602C316.158 69.9564 315.549 70.6451 314.386 71.559C312.664 72.913 309.655 73.3332 309.655 73.3332H302.558L304.924 78.0643L308.472 85.1611C308.472 85.1611 309.064 86.3439 309.064 86.9353C309.064 87.5266 308.472 87.5266 308.472 87.5266L297.236 93.4406L293.687 86.3439L290.139 79.2471L285.999 82.7955C285.999 82.7955 283.235 84.4093 281.268 84.5697C279.146 84.7427 277.736 84.5389 275.946 83.3869C274.847 82.68 274.281 82.1235 273.58 81.0213C272.796 79.789 272.397 77.4729 272.397 77.4729V41.9893C271.806 31.3442 283.042 31.3442 286.591 34.8925C290.139 38.4409 310.552 56.301 310.552 56.301H331.536V40.5699C331.536 32.4008 331.37 25.7772 331.039 20.6991C330.818 15.621 330.101 11.6468 328.886 8.77658C327.672 5.90634 325.63 3.86406 322.759 2.64973C319.889 1.4354 315.86 0.717841 310.671 0.497057Z" fill="#F5F7F8"/>
<path d="M532.57 0.000282288C540.629 0.000282288 547.197 0.165874 552.275 0.497057C557.464 0.717841 561.493 1.4354 564.363 2.64973C567.233 3.86406 569.276 5.90634 570.49 8.77658C571.704 11.6468 572.422 15.621 572.643 20.6991C572.974 25.7772 573.139 32.4008 573.139 40.5699V56.301H523.462V36.4302C523.462 34.7743 523.297 33.8359 522.966 33.6151C522.745 33.284 521.806 33.1184 520.151 33.1184V77.8278C520.151 79.4837 520.261 80.4772 520.482 80.8084C520.813 81.0292 521.806 81.1396 523.462 81.1396V59.6128H573.139V75.3439C573.139 83.4027 572.974 90.0263 572.643 95.2148C572.422 100.293 571.704 104.267 570.49 107.137C569.276 110.008 567.233 112.05 564.363 113.264C561.493 114.478 557.519 115.251 552.441 115.582C547.363 115.803 540.739 115.914 532.57 115.914H511.043C502.984 115.914 496.361 115.803 491.172 115.582C486.094 115.251 482.12 114.478 479.25 113.264C476.379 112.05 474.337 110.008 473.123 107.137C471.909 104.267 471.136 100.293 470.805 95.2148C470.584 90.0263 470.473 83.4027 470.473 75.3439V40.5699C470.473 32.4008 470.584 25.7772 470.805 20.6991C471.136 15.621 471.909 11.6468 473.123 8.77658C474.337 5.90634 476.379 3.86406 479.25 2.64973C482.12 1.4354 486.094 0.717841 491.172 0.497057C496.361 0.165874 502.984 0.000282288 511.043 0.000282288H532.57Z" fill="#F5F7F8"/>
<path d="M576.393 57.129C576.393 49.0702 576.503 42.5018 576.724 37.4237C577.055 32.2352 577.828 28.2059 579.042 25.3356C580.257 22.4654 582.299 20.4231 585.169 19.2088C588.04 17.9944 592.014 17.2769 597.092 17.0561C602.28 16.7249 608.904 16.5593 616.963 16.5593H638.489C646.548 16.5593 649.159 16.7249 658.195 17.0561C667.427 17.2769 674.597 17.9944 679.704 19.2088C684.812 20.4231 688.446 22.4654 690.607 25.3356C692.767 28.2059 694.044 32.18 694.437 37.2581C695.026 42.3362 695.321 48.9599 695.321 57.129V96.0427H626.07V99.3545H695.321V115.914L601.232 115.748C595.05 115.527 590.247 114.92 586.825 113.927C583.403 112.823 580.919 110.891 579.374 108.131C577.939 105.371 577.055 101.397 576.724 96.2083C576.503 90.9094 576.393 83.9546 576.393 75.3439V57.129ZM626.07 49.6774V66.2365H629.382V52.9892C629.382 51.3333 629.216 50.395 628.885 50.1742C628.664 49.843 627.726 49.6774 626.07 49.6774Z" fill="#F5F7F8"/>
<path d="M701.235 17.0561L744.409 16.5593C752.468 16.5593 755.813 16.7249 764.114 17.0561C772.597 17.2769 779.184 17.9944 783.876 19.2088C788.568 20.4231 791.907 22.4654 793.892 25.3356C795.877 28.2059 797.051 32.18 797.411 37.2581C797.953 42.3362 798.224 48.9599 798.224 57.129V96.0427H735.302V69.5483C735.302 67.8924 735.136 66.954 734.805 66.7332C734.584 66.402 733.646 66.2365 731.99 66.2365V115.914L701.235 116.41V66.7332V17.0561Z" fill="#F5F7F8"/>
<path d="M844.116 115.914C836.057 115.914 829.434 115.803 824.245 115.582C819.167 115.251 815.193 114.478 812.323 113.264C809.452 112.05 807.41 110.008 806.196 107.137C804.981 104.267 804.209 100.293 803.877 95.2148C803.657 90.0263 803.546 83.4027 803.546 75.3439V0.000282288H853.223V16.5593H869.782V66.2365H853.058C853.058 67.6716 853.113 68.5547 853.223 68.8859C853.444 69.3275 854.438 69.5483 856.204 69.5483H869.782V115.914H844.116Z" fill="#F5F7F8"/>
<path d="M936.019 17.4217C944.077 17.4217 950.646 17.5873 955.724 17.9184C960.912 18.1392 964.942 18.8568 967.812 20.0711C970.682 21.2854 972.724 23.3277 973.939 26.198C975.153 29.0682 975.871 33.0424 976.091 38.1205C976.423 43.1986 976.588 49.8222 976.588 57.9913V76.2063C976.588 84.265 976.423 90.8886 976.091 96.0771C975.871 101.155 975.153 105.129 973.939 108C972.724 110.87 970.682 112.912 967.812 114.126C964.942 115.341 960.967 116.114 955.889 116.445C950.811 116.666 944.188 116.776 936.019 116.776H914.492C906.433 116.776 899.809 116.666 894.621 116.445C889.543 116.114 885.569 115.341 882.698 114.126C879.828 112.912 877.786 110.87 876.572 108C875.357 105.129 874.584 101.155 874.253 96.0771C874.033 90.8886 873.922 84.265 873.922 76.2063V57.9913C873.922 49.9326 874.033 43.3642 874.253 38.2861C874.584 33.0976 875.357 29.0682 876.572 26.198C877.786 23.3277 879.828 21.2854 882.698 20.0711C885.569 18.8568 889.543 18.1392 894.621 17.9184C899.809 17.5873 906.433 17.4217 914.492 17.4217H936.019ZM923.599 50.5398V63.787C923.599 65.4429 923.71 66.4364 923.93 66.7676C924.262 66.9884 925.255 67.0988 926.911 67.0988V53.8516C926.911 52.1957 926.745 51.2573 926.414 51.0365C926.193 50.7054 925.255 50.5398 923.599 50.5398Z" fill="#F5F7F8"/>
<rect x="984.755" y="88.243" width="30.2445" height="27.8249" rx="2" fill="#F5F7F8"/>
</svg>
