<svg width="218" height="246" viewBox="0 0 218 246" fill="none" xmlns="http://www.w3.org/2000/svg">
<path d="M131.855 0C148.967 0 162.914 0.351431 173.697 1.05429C184.714 1.52286 193.27 3.04572 199.365 5.62287C205.459 8.20001 209.796 12.5343 212.374 18.6257C214.953 24.7171 216.476 33.1514 216.945 43.9286C217.648 54.7057 218 68.7629 218 86.1V119.486H167.016C167.016 119.486 113.722 72.0094 113.018 71.5408C112.314 70.4865 105.484 69.9775 105.484 75.0934V165.171C105.484 168.686 105.718 170.794 106.187 171.497C106.89 171.966 108.246 174.459 112.516 172.2C116.787 169.941 129.593 151.867 129.593 151.867L143.407 180.735L162.243 168.184L149.686 141.827H183.591C183.591 141.827 185.409 141.958 186.103 140.571C186.796 139.185 186.103 138.061 186.103 138.061L172.289 126.514H218V159.9C218 177.003 217.648 191.06 216.945 202.071C216.476 212.849 214.953 221.283 212.374 227.374C209.796 233.466 205.459 237.8 199.365 240.377C193.27 242.954 184.831 244.594 174.048 245.297C163.266 245.766 149.201 246 131.855 246H86.1452C69.0333 246 54.9688 245.766 43.9516 245.297C33.1688 244.594 24.7301 242.954 18.6355 240.377C12.5409 237.8 8.2043 233.466 5.62581 227.374C3.04731 221.283 1.40645 212.849 0.703225 202.071C0.234408 191.06 0 177.003 0 159.9V86.1C0 68.7629 0.234408 54.7057 0.703225 43.9286C1.40645 33.1514 3.04731 24.7171 5.62581 18.6257C8.2043 12.5343 12.5409 8.20001 18.6355 5.62287C24.7301 3.04572 33.1688 1.52286 43.9516 1.05429C54.9688 0.351431 69.0333 0 86.1452 0H131.855Z" fill="#ECEDEE"/>
</svg>
