<svg width="808" height="378" viewBox="0 0 808 378" fill="none" xmlns="http://www.w3.org/2000/svg">
<path d="M233.747 184.289C220.934 184.289 210.403 184.114 202.154 183.763C194.081 183.236 187.762 182.008 183.199 180.077C178.635 178.146 175.388 174.899 173.458 170.336C171.527 165.773 170.298 159.454 169.772 151.381C169.421 143.131 169.245 132.601 169.245 119.788V0H248.226V52.6541H274.554V184.289H233.747Z" fill="#0D0E12"/>
<path d="M279.798 184.289V0H358.78V184.289H279.798Z" fill="#0D0E12"/>
<path d="M532.528 184.289V0H611.509V101.547C614.142 101.547 615.633 101.372 615.984 101.021C616.511 100.494 616.774 98.9145 616.774 96.2818V43.2516C616.774 43.2516 694.751 14.1038 695.755 43.2516C696.598 67.6836 695.755 115.651 695.755 115.651H643.101C643.101 118.284 643.277 119.863 643.628 120.39C644.154 120.741 645.734 120.916 648.367 120.916H695.755V184.289H616.774V150.816C614.142 150.816 612.562 151.08 612.035 151.606C611.684 151.957 611.509 153.449 611.509 156.082V184.289H532.528Z" fill="#0D0E12"/>
<path d="M130.056 0.789817C121.982 0.263272 111.539 0 98.7264 0H64.5013C51.6888 0 41.1579 0.263272 32.9088 0.789817C24.8352 1.14084 18.5167 2.28168 13.9533 4.21234C9.38998 6.14298 6.14298 9.38998 4.21233 13.9533C2.28168 18.5167 1.05308 24.8352 0.526541 32.9088C0.175514 40.9824 0 51.5133 0 64.5013V119.788C0 132.601 0.175514 143.131 0.526541 151.381C1.05308 159.454 2.28168 165.773 4.21233 170.336C6.14298 174.899 9.38998 178.146 13.9533 180.077C18.5167 182.008 24.8352 183.236 32.9088 183.763C41.1579 184.114 51.6888 184.289 64.5013 184.289H98.7264C111.714 184.289 122.245 184.114 130.319 183.763C138.392 183.236 144.711 182.008 149.274 180.077C153.838 178.146 157.085 174.899 159.015 170.336C160.946 165.773 162.087 159.454 162.438 151.381C162.964 143.131 163.228 132.601 163.228 119.788V94.7774L135.962 94.9654C135.962 94.9654 137.174 96.0507 137.842 96.8459C138.694 97.8597 139.173 98.4622 139.723 99.6667C140.351 101.044 140.542 101.919 140.663 103.428C140.841 105.654 140.62 107.024 139.723 109.069C138.779 111.222 137.81 112.318 135.962 113.77C133.223 115.923 128.44 116.591 128.44 116.591H117.157L120.918 124.113L126.559 135.396C126.559 135.396 127.5 137.277 127.5 138.217C127.5 139.157 126.559 139.157 126.559 139.157L108.695 148.56L103.053 137.277L97.4115 125.994L90.8298 131.635C90.8298 131.635 86.4347 134.201 83.3078 134.456C79.9336 134.731 77.6926 134.407 74.8455 132.575C73.0986 131.452 72.1997 130.567 71.0845 128.814C69.8377 126.855 69.204 123.173 69.204 123.173V66.7579C68.2637 49.8333 86.1285 49.8333 91.77 55.4748C97.4115 61.1164 129.866 89.512 129.866 89.512H163.228V64.5013C163.228 51.5133 162.964 40.9824 162.438 32.9088C162.087 24.8352 160.946 18.5167 159.015 13.9533C157.085 9.38998 153.838 6.14298 149.274 4.21234C144.711 2.28168 138.305 1.14084 130.056 0.789817Z" fill="#0D0E12"/>
<path d="M493.933 0.789817C485.859 0.263272 475.416 0 462.604 0H428.379C415.566 0 405.035 0.263272 396.786 0.789817C388.713 1.14084 382.394 2.28168 377.831 4.21234C373.267 6.14298 370.02 9.38998 368.09 13.9533C366.159 18.5167 364.931 24.8352 364.404 32.9088C364.053 40.9824 363.877 51.5133 363.877 64.5013V119.788C363.877 132.601 364.053 143.131 364.404 151.381C364.931 159.454 366.159 165.773 368.09 170.336C370.02 174.899 373.267 178.146 377.831 180.077C382.394 182.008 388.713 183.236 396.786 183.763C405.035 184.114 415.566 184.289 428.379 184.289H462.604C475.592 184.289 486.123 184.114 494.196 183.763C502.27 183.236 508.588 182.008 513.152 180.077C517.715 178.146 520.962 174.899 522.893 170.336C524.823 165.773 525.964 159.454 526.315 151.381C526.842 143.131 527.105 132.601 527.105 119.788V94.7774L499.839 94.9654C499.839 94.9654 501.052 96.0507 501.72 96.8459C502.571 97.8597 503.051 98.4622 503.6 99.6667C504.229 101.044 504.42 101.919 504.541 103.428C504.719 105.654 504.497 107.024 503.6 109.069C502.656 111.222 501.688 112.318 499.839 113.77C497.101 115.923 492.317 116.591 492.317 116.591H481.034L484.795 124.113L490.437 135.396C490.437 135.396 491.377 137.277 491.377 138.217C491.377 139.157 490.437 139.157 490.437 139.157L472.572 148.56L466.93 137.277L461.289 125.994L454.707 131.635C454.707 131.635 450.312 134.201 447.185 134.456C443.811 134.731 441.57 134.407 438.723 132.575C436.976 131.452 436.077 130.567 434.962 128.814C433.715 126.855 433.081 123.173 433.081 123.173V66.7579C432.141 49.8333 450.006 49.8333 455.647 55.4748C461.289 61.1164 493.744 89.512 493.744 89.512H527.105V64.5013C527.105 51.5133 526.842 40.9824 526.315 32.9088C525.964 24.8352 524.823 18.5167 522.893 13.9533C520.962 9.38998 517.715 6.14298 513.152 4.21234C508.588 2.28168 502.182 1.14084 493.933 0.789817Z" fill="#0D0E12"/>
<path d="M101.36 191.811C114.172 191.811 124.616 192.075 132.689 192.601C140.938 192.952 147.345 194.093 151.908 196.024C156.471 197.954 159.718 201.201 161.649 205.765C163.58 210.328 164.72 216.646 165.071 224.72C165.598 232.794 165.861 243.325 165.861 256.313V281.323H86.8801V249.731C86.8801 247.098 86.6168 245.606 86.0903 245.255C85.7392 244.729 84.2474 244.465 81.6147 244.465V315.548C81.6147 318.181 81.7902 319.761 82.1412 320.287C82.6678 320.638 84.2474 320.814 86.8801 320.814V286.589H165.861V311.599C165.861 324.412 165.598 334.943 165.071 343.192C164.72 351.265 163.58 357.584 161.649 362.147C159.718 366.711 156.471 369.958 151.908 371.888C147.345 373.819 141.026 375.048 132.952 375.574C124.879 375.925 114.348 376.101 101.36 376.101H67.1348C54.3223 376.101 43.7915 375.925 35.5423 375.574C27.4687 375.048 21.1502 373.819 16.5869 371.888C12.0235 369.958 8.77652 366.711 6.84587 362.147C4.91522 357.584 3.68663 351.265 3.16009 343.192C2.80906 334.943 2.63354 324.412 2.63354 311.599V256.313C2.63354 243.325 2.80906 232.794 3.16009 224.72C3.68663 216.646 4.91522 210.328 6.84587 205.765C8.77652 201.201 12.0235 197.954 16.5869 196.024C21.1502 194.093 27.4687 192.952 35.5423 192.601C43.7915 192.075 54.3223 191.811 67.1348 191.811H101.36Z" fill="#0D0E12"/>
<path d="M171.034 282.64C171.034 269.827 171.21 259.384 171.561 251.31C172.087 243.061 173.316 236.655 175.246 232.092C177.177 227.528 180.424 224.281 184.987 222.351C189.551 220.42 195.869 219.279 203.943 218.928C212.192 218.402 222.723 218.138 235.535 218.138H269.76C282.573 218.138 286.723 218.402 301.09 218.928C315.768 219.279 327.168 220.42 335.288 222.351C343.408 224.281 349.186 227.528 352.621 232.092C356.056 236.655 358.086 242.974 358.711 251.047C359.648 259.121 360.116 269.652 360.116 282.64V344.508H250.015V349.774H360.116V376.101L210.525 375.837C200.696 375.486 193.061 374.521 187.62 372.941C182.179 371.186 178.23 368.115 175.773 363.727C173.491 359.339 172.087 353.021 171.561 344.771C171.21 336.347 171.034 325.289 171.034 311.599V282.64ZM250.015 270.792V297.119H255.281V276.058C255.281 273.425 255.017 271.933 254.491 271.582C254.14 271.056 252.648 270.792 250.015 270.792Z" fill="#0D0E12"/>
<path d="M369.519 218.928L438.161 218.138C450.973 218.138 456.291 218.402 469.49 218.928C482.976 219.279 493.449 220.42 500.909 222.351C508.369 224.281 513.678 227.528 516.834 232.092C519.99 236.655 521.855 242.974 522.429 251.047C523.29 259.121 523.72 269.652 523.72 282.64V344.508H423.681V302.385C423.681 299.752 423.418 298.26 422.891 297.909C422.54 297.383 421.048 297.119 418.416 297.119V376.101L369.519 376.89V297.909V218.928Z" fill="#0D0E12"/>
<path d="M596.684 376.101C583.871 376.101 573.34 375.925 565.091 375.574C557.018 375.048 550.699 373.819 546.136 371.888C541.572 369.958 538.325 366.711 536.395 362.147C534.464 357.584 533.236 351.265 532.709 343.192C532.358 334.943 532.182 324.412 532.182 311.599V191.811H611.164V218.138H637.491V297.119H610.9C610.9 299.401 610.988 300.805 611.164 301.332C611.515 302.034 613.094 302.385 615.902 302.385H637.491V376.101H596.684Z" fill="#0D0E12"/>
<path d="M742.799 219.509C755.611 219.509 766.054 219.773 774.128 220.299C782.377 220.65 788.783 221.791 793.347 223.722C797.91 225.652 801.157 228.899 803.088 233.463C805.018 238.026 806.159 244.345 806.51 252.418C807.037 260.492 807.3 271.023 807.3 284.011V312.97C807.3 325.783 807.037 336.314 806.51 344.563C806.159 352.636 805.018 358.955 803.088 363.518C801.157 368.082 797.91 371.329 793.347 373.259C788.783 375.19 782.465 376.419 774.391 376.945C766.318 377.296 755.787 377.472 742.799 377.472H708.574C695.761 377.472 685.23 377.296 676.981 376.945C668.908 376.419 662.589 375.19 658.026 373.259C653.462 371.329 650.215 368.082 648.285 363.518C646.354 358.955 645.125 352.636 644.599 344.563C644.248 336.314 644.072 325.783 644.072 312.97V284.011C644.072 271.198 644.248 260.755 644.599 252.681C645.125 244.432 646.354 238.026 648.285 233.463C650.215 228.899 653.462 225.652 658.026 223.722C662.589 221.791 668.908 220.65 676.981 220.299C685.23 219.773 695.761 219.509 708.574 219.509H742.799ZM723.054 272.163V293.225C723.054 295.858 723.229 297.437 723.58 297.964C724.107 298.315 725.686 298.491 728.319 298.491V277.429C728.319 274.796 728.056 273.304 727.529 272.953C727.178 272.427 725.686 272.163 723.054 272.163Z" fill="#0D0E12"/>
</svg>
